# xmcd CD database file
#
# Track frame offsets:
#	150
#	12107
#	34162
#	58004
#	75503
#	95279
#	113987
#	130293
#	151089
#	172817
#	191329
#	210948
#	229400
#	247058
#	264282
#	285860
#	306203
#
# Disc length: 4381 seconds
#
# Revision: 0
# Processed by: cddbd v1.5PL3 Copyright (c) Steve Scherf et al.
# Submitted via: CDex 1.50
#
DISCID=d0111b11
DTITLE=Various Artist - Lo Mas Nuevo Del Año 2002
DYEAR=2002
DGENRE=Merengue
TTITLE0=Kutilitakati "Ta Cruzao" - Toño Rosario
TTITLE1=Con El Mismo Sabor - Kinito Mendez
TTITLE2=Que Tu Eres Señorita? - La Banda Chula
TTITLE3=Agarraio Ahi - Limite XXI
TTITLE4=Llego La Gorda - La Banda Gorda
TTITLE5=Yo Tambien - Los Homeboys
TTITLE6=El Huevo - Azucarao
TTITLE7=Que Critiquen - Papichulo y Fulamito
TTITLE8=El Vasilon - Cuco Valoy
TTITLE9=El Fulano En NY - La Banda Chula
TTITLE10=Bounce - Amallis
TTITLE11=Eso Me Da Pena - Pedrito
TTITLE12=Ella Me Olvido - Diomedes and El Grupo Mio
TTITLE13=El Baile DEl Gorila - Oro Solido
TTITLE14=Vete Y Dile - Sergio Vargas
TTITLE15=Volvamos - Eddy Herrera
TTITLE16=Los Algodones - Tulile " En Vivo"
EXTD=YEAR: 2002
EXTT0=
EXTT1=
EXTT2=
EXTT3=
EXTT4=
EXTT5=
EXTT6=
EXTT7=
EXTT8=
EXTT9=
EXTT10=
EXTT11=
EXTT12=
EXTT13=
EXTT14=
EXTT15=
EXTT16=
PLAYORDER=
